<svg xmlns="http://www.w3.org/2000/svg" viewBox="0 0 256.23 44.23"><defs><style>.cls-1{fill:#25408f;}</style></defs><title>logo</title><g id="Layer_2" data-name="Layer 2"><g id="Graphics"><rect class="cls-1" y="0.77" width="2.4" height="42.53"/><rect class="cls-1" x="9.02" y="0.77" width="3.01" height="42.53"/><rect class="cls-1" x="16.83" y="0.77" width="4.06" height="42.53"/><rect class="cls-1" x="24.65" y="0.77" width="5.86" height="42.53"/><rect class="cls-1" x="33.06" y="0.77" width="8.42" height="42.53"/><path class="cls-1" d="M66.58,33.54H57.11V10.77h7.74a3.09,3.09,0,0,1,3.38,3.38c0,2.71-3.16,3.16-3.16,3.16H58.61v8h7c3.23,0,4.58,1.58,4.58,4.58,0,3.46-3.61,3.61-3.61,3.61M81.91,31c-.15-8.72-6.76-10.67-6.76-10.67C80.26,19.11,80,12,80,12,80,2,73,.77,66.58.77H43.89V43.31H57.11l8.12-.07A23.36,23.36,0,0,0,75.9,41c5.86-3.09,6-10,6-10"/><path class="cls-1" d="M120.84,35.64c.3-7.21-1.8-9-1.8-9A16.2,16.2,0,0,0,115,23.32a8.94,8.94,0,0,0,2.71-1.65c3.91-3,3.61-8.72,3.61-8.72,0-6.46-4.36-9-4.36-9C113.42.88,105.66.77,105.66.77H83.56V43.31H96.64V10.84h9A4,4,0,0,1,109,15.05c.1,2.56-2,3.73-3.29,4.21H98.59v8.87h6c4.31,1.11,3.91,8.12,3.91,8.12a19.73,19.73,0,0,0,1.65,7.07h12.63c-1.62-1.6-2-7.67-2-7.67"/><rect class="cls-1" x="123.89" y="0.77" width="12.48" height="42.53"/><polygon class="cls-1" points="164.77 0.77 164.77 22.27 152.45 0.77 140.12 0.77 140.12 43.31 152.45 43.31 152.45 22.09 164.87 43.31 178.15 43.31 178.15 0.77 164.77 0.77"/><rect class="cls-1" x="181.6" y="0.77" width="13.23" height="42.54"/><polygon class="cls-1" points="208.04 0.78 194.08 21.52 208.06 43.31 224.44 43.31 209.11 20.76 223.37 0.78 208.04 0.78"/><path class="cls-1" d="M221.53,36.59a15.33,15.33,0,0,0,9.63,6.85,30.64,30.64,0,0,0,14.62-.22s7.2-1.64,9.56-8.13c0,0,2.64-6.78-1.14-11.91,0,0-2.57-3.64-9.41-5.63l-7.49-1.92s-3.65-.67-4.57-2.45a1.91,1.91,0,0,1-.38-1.35s.22-2.5,3.31-2.65c0,0,3.68-.51,5.59.67a3.94,3.94,0,0,1,2.13,4h11.55A12.1,12.1,0,0,0,249.7,3.21S246.06.07,237.65,0c0,0-8.7-.07-13.91,5.28a12.14,12.14,0,0,0-1.85,12.91S224,23.33,233,25.54c0,0,8,1.85,10.13,3.35a4,4,0,0,1,.94.9,2.23,2.23,0,0,1,.55,2.32,3.94,3.94,0,0,1-3.09,2.65s-5.22,1.54-8.61-1.18c0,0-1.76-1.32-1.83-5H219.61c0,.95.09,5.29,1.93,8"/></g></g></svg>