<svg height="0" style="display:none;" overflow="hidden" width="0" xmlns="http://www.w3.org/2000/svg"><defs><symbol id="icon-logo" viewBox="0 0 32 32"><path d="m0 13.346h.3v5.316h-.3z"/><path d="m1.127 13.346h.376v5.316h-.376z"/><path d="m2.104 13.346h.507v5.316h-.507z"/><path d="m3.081 13.346h.732v5.316h-.732z"/><path d="m4.133 13.346h1.053v5.316h-1.053z"/><path d="m8.322 17.442h-1.184v-2.846h.967c.011-.001.025-.002.038-.002.213 0 .386.173.386.386 0 .013-.001.027-.002.04v-.002c0 .339-.395.395-.395.395h-.808v1h .875c.404 0 .572.198.572.573 0 .433-.451.451-.451.451zm1.917-.317c-.019-1.09-.845-1.334-.845-1.334.639-.152.606-1.041.606-1.041 0-1.25-.875-1.404-1.678-1.404h-2.836v5.318h1.652l1.015-.009c.025.001.054.001.084.001.454 0 .884-.104 1.268-.289l-.017.008c.732-.386.75-1.25.75-1.25z"/><path d="m15.105 17.705c.037-.901-.225-1.125-.225-1.125-.143-.163-.31-.301-.496-.41l-.009-.005c.13-.051.243-.121.34-.207l-.001.001c.489-.375.451-1.09.451-1.09 0-.807-.545-1.125-.545-1.125-.443-.384-1.412-.398-1.412-.398h-2.762v5.317h1.635v-4.059h1.125c.24.039.421.245.421.494 0 .011 0 .023-.001.034v-.002c.012.32-.25.466-.411.526h-.89v1.109h.75c.539.139.489 1.015.489 1.015.015.323.089.624.213.899l-.006-.016h1.579c-.203-.2-.25-.959-.25-.959z"/><path d="m15.486 13.346h1.56v5.316h-1.56z"/><path d="m20.596 13.346v2.687l-1.54-2.688h-1.541v5.317h1.541v-2.652l1.552 2.652h1.66v-5.317h-1.672z"/><path d="m22.7 13.346h1.654v5.318h-1.654v-5.317z"/><path d="m26.005 13.348-1.745 2.592 1.747 2.724h2.047l-1.916-2.819 1.782-2.498h-1.916z"/><path d="m27.691 17.824c.269.428.693.738 1.191.854l.013.003c.258.062.554.097.858.097.345 0 .679-.046.997-.131l-.027.006s.9-.205 1.195-1.016c0 0 .33-.848-.142-1.489 0 0-.321-.455-1.176-.704l-.936-.24s-.456-.084-.571-.306c-.03-.04-.049-.09-.049-.145 0-.009 0-.017.001-.025v.001s.027-.313.414-.331c0 0 .46-.064.699.084.161.083.27.249.27.439 0 .021-.001.042-.004.063v-.002h1.444c.001-.025.002-.054.002-.083 0-.515-.258-.97-.651-1.243l-.005-.003s-.455-.393-1.506-.401c0 0-1.087-.009-1.739.66-.227.264-.366.61-.366.988 0 .227.05.442.139.635l-.004-.009s.264.643 1.389.919c0 0 1 .231 1.266.419.046.031.084.069.117.111l.001.001c.052.051.084.121.084.199 0 .032-.006.064-.016.093l.001-.002c-.058.172-.204.3-.383.331h-.003s-.652.192-1.076-.148c0 0-.22-.165-.229-.625h-1.435c0 .119.011.661.241 1z"/></symbol><symbol id="icon-phone" viewBox="0 0 32 32"><path d="m16 0c-8.837 0-16 7.163-16 16s7.163 16 16 16 16-7.163 16-16v0c0-8.837-7.163-16-16-16zm9.824 22.216c-.514 2.234-2.485 3.875-4.84 3.875-.268 0-.532-.021-.788-.062l.028.004c-3.662-.64-6.832-2.409-9.217-4.928l-.007-.008c-2.507-2.362-4.248-5.511-4.827-9.052l-.013-.092c-.304-2.872.96-5.104 3.328-5.944.134-.045.288-.071.448-.071.591 0 1.099.354 1.324.862l.004.009 1.264 2.752c.076.171.121.37.121.58 0 .397-.159.757-.417 1.02l-1.96 1.96s.048 1.544 3.2 4.728 4.728 3.2 4.728 3.2l1.968-1.848c.263-.263.627-.426 1.029-.426.237 0 .461.057.659.158l-.008-.004 3.2 1.6c.492.243.824.741.824 1.317 0 .132-.017.26-.05.382l.002-.01z"/></symbol><symbol id="icon-time" viewBox="0 0 32 32"><path d="m29.035 12.357c-2.009-4.649-6.314-7.962-11.446-8.528l-.063-.006v-.949h1.067c.405-.012.73-.337.741-.74v-.001-1.371c0-.421-.341-.763-.763-.763h-5.125c-.421 0-.763.341-.763.763v0 1.371c0 .421.341.763.763.763v0h1.067v.907c-7.137.783-12.639 6.779-12.639 14.059 0 3.903 1.581 7.436 4.138 9.994l0 0c2.558 2.55 6.088 4.127 9.985 4.127 7.811 0 14.144-6.332 14.144-14.144 0-1.979-.406-3.863-1.14-5.573l.035.092zm-13.03 17.126c-6.418 0-11.621-5.203-11.621-11.621s5.203-11.621 11.621-11.621 11.621 5.203 11.621 11.621v0c-.009 6.415-5.207 11.612-11.62 11.621z"/><path d="m16.459 7.819c-.014 0-.031 0-.047 0-5.384 0-9.749 4.365-9.749 9.749s4.365 9.749 9.749 9.749c4.14 0 7.678-2.581 9.091-6.221l.023-.067-9.099-3.461z"/></symbol><symbol id="icon-assist" viewBox="0 0 29 32"><path d="m20.04 4.484c-.06.424-.14.868-.244 1.316 4.69 1.101 8.128 5.249 8.128 10.2s-3.438 9.099-8.057 10.186l-.071.014c.104.448.188.892.244 1.316 5.308-1.229 9.204-5.917 9.204-11.514s-3.896-10.285-9.124-11.498l-.08-.016z"/><path d="m12.472 10.12c.333-.473.722-.879 1.163-1.218l.013-.01.164-.124 1.972.228h.044c.191-.022.359-.108.484-.236l0 0c .632-.564 1.164-1.828 1.496-3.176.091-.347.179-.793.244-1.246l.008-.07c.06-.399.096-.861.1-1.332v-.004c0-1.368-.332-2.264-.892-2.4l-1.968-.472c-.15-.037-.322-.059-.499-.06h-.001c-2.192 0-4.232 3.016-5.56 6.924q-.084.248-.164.5c-.228.72-.436 1.468-.612 2.228-.036.156-.068.316-.1.472h4.108z"/><path d="m17.804 26.4c-.328-1.348-.864-2.616-1.496-3.176-.124-.13-.292-.217-.481-.236h-.003-.044l-1.968.228-.164-.124c-.518-.397-.954-.869-1.299-1.406l-.013-.022c-.285.153-.624.243-.984.244h-2.98q.048.216.096.428c.22.936.48 1.852.776 2.724 1.328 3.928 3.364 6.94 5.556 6.94h.005c.183 0 .36-.022.53-.063l-.015.003 1.96-.472c.56-.132.892-1.028.892-2.4-.004-.475-.04-.937-.107-1.39l.007.054c-.079-.531-.172-.982-.288-1.423z"/><path d="m11.76 20.476c.207-.133.354-.344.399-.591l.001-.005c.009-.046.015-.099.015-.153 0-.155-.044-.3-.121-.423l.002.003-.272-.436c.668-.544 1.14-1.18.616-1.932l-.348-.5.512-.316c.28-.178.48-.461.547-.792l.001-.008c.013-.067.021-.144.021-.223 0-.248-.075-.478-.204-.669l.003.004-.308-.452-.032-.044.036-.024.496-.316c.277-.179.474-.462.535-.793l.001-.007c.017-.074.027-.158.027-.245 0-.6-.475-1.089-1.069-1.111h-.002-5.452l.496-2.308c-1.488.368-3.82 2.18-5 3.152l-.16.132h-2.5v7.02h1.912c1.412.6 2.468 1.14 4 1.144h5.44.007c.148 0 .286-.04.405-.11l-.004.002z"/><path d="m23.964 16c-.005-3.035-2.081-5.584-4.891-6.31l-.045-.01-.256 1.316c2.215.621 3.812 2.622 3.812 4.996 0 2.384-1.611 4.393-3.804 4.995l-.036.009.26 1.312c2.861-.725 4.946-3.271 4.96-6.306z"/></symbol><symbol id="icon-bag" viewBox="0 0 24 32"><path d="m16.8 10.088c-1.33.425-2.861.677-4.448.692h-.008c-.022 0-.047 0-.073 0-1.582 0-3.092-.304-4.477-.857l.081.029c-5.64 3.936-9.2 13.288-7.412 16.728 2.648 5.092 7.684 5.32 11.3 5.32s9.392.54 12.164-6.176c2.472-5.984-5.356-14.028-7.128-15.736zm-3.816 15.912v1.816h-1.744v-1.688c-1.108-.032-2.144-.31-3.064-.783l.04.019.532-2.08c.851.485 1.867.779 2.95.8h.006c1.016 0 1.708-.4 1.708-1.104s-.568-1.104-1.888-1.548c-1.904-.64-3.2-1.532-3.2-3.256 0-1.568 1.104-2.8 3.008-3.168v-1.712h1.744v1.564c.939.015 1.824.23 2.619.605l-.039-.017-.516 2c-.748-.376-1.629-.598-2.562-.604h-.002c-1.156 0-1.532.5-1.532.996 0 .588.624.96 2.136 1.532 2.116.748 2.972 1.728 2.972 3.328s-1.124 2.948-3.168 3.3zm3.556-18s2.868-6.304 1.86-6.936-3.46 1.78-3.704 1.7-2.44-2.512-3.284-2.72-1.956.4-2.872 1.44c-1.896-.876-2.48-.1-3.068.496s2.56 5.78 2.56 5.78c2.484 1.192 5.336 1.28 8.508.24z"/></symbol><symbol id="icon-mobile" viewBox="0 0 19 32"><path d="m14.192 0h-8.94c-2.9.002-5.25 2.352-5.252 5.252v21.496c.002 2.9 2.352 5.25 5.252 5.252h8.94c2.9-.002 5.25-2.352 5.252-5.252v-21.496c-.002-2.9-2.352-5.25-5.252-5.252h0zm-8.94 2.424h8.94c1.561.002 2.826 1.267 2.828 2.828v16.892h-14.596v-16.892c.002-1.561 1.267-2.826 2.828-2.828zm1.876 24.044c0-1.434 1.162-2.596 2.596-2.596s2.596 1.162 2.596 2.596-1.162 2.596-2.596 2.596v0c-1.434 0-2.596-1.162-2.596-2.596z"/></symbol><symbol id="icon-safe" viewBox="0 0 32 32"><path d="m16.224 11.468v-.268c0-.163-.133-.296-.296-.296v0h-.86c-.163 0-.296.133-.296.296v0 .264c-1.931.355-3.375 2.025-3.375 4.032s1.444 3.677 3.35 4.028l.025.004v.264c0 .163.133.296.296.296h.864c.163 0 .296-.133.296-.296v0-.264c1.931-.355 3.375-2.025 3.375-4.032s-1.444-3.677-3.35-4.028l-.025-.004z"/><path d="m28.496 28.496h-26v-26h26v3.324h2.504v-3.568c0-1.244-1.008-2.252-2.252-2.252v0h-26.496c-1.244 0-2.252 1.008-2.252 2.252v0 26.496c0 1.244 1.008 2.252 2.252 2.252h1.148c-.002.02-.003.044-.003.068s.001.048.003.071v-.003c.002.472.381.855.851.864h3.001c.479 0 .868-.389.868-.868v0c .002-.02.003-.044.003-.068s-.001-.048-.003-.071v.003h14.768c-.002.02-.003.044-.003.068s.001.048.003.071v-.003 0c0 .475.382.861.855.868h3.001c.474-.007.856-.393.856-.868v0 0c .002-.02.003-.044.003-.068s-.001-.048-.003-.071v.003h1.148c1.244 0 2.252-1.008 2.252-2.252v0-3.572h-2.504z"/><path d="m28.496 10.824h2.5v9.348h-2.5z"/><path d="m24.936 5.824h2.868v-2.624h-24.604v24.604h24.604v-2.632h-2.868c-.722 0-1.308-.586-1.308-1.308v0-2.4c0-.722.586-1.308 1.308-1.308v0h2.868v-9.332h-2.868c-.722 0-1.308-.586-1.308-1.308v0-2.4c.009-.715.591-1.292 1.308-1.292zm-9.436 14.608c-2.724 0-4.932-2.208-4.932-4.932s2.208-4.932 4.932-4.932 4.932 2.208 4.932 4.932v0c-.002 2.723-2.209 4.93-4.932 4.932z"/><path d="m25.024 6.316h6.1c.497 0 .9.403.9.9v2.2c0 .497-.403.9-.9.9h-6.1c-.497 0-.9-.403-.9-.9v-2.2c0-.497.403-.9.9-.9z"/><path d="m25.024 20.68h6.1c.497 0 .9.403.9.9v2.2c0 .497-.403.9-.9.9h-6.1c-.497 0-.9-.403-.9-.9v-2.2c0-.497.403-.9.9-.9z"/></symbol><symbol id="icon-idea" viewBox="0 0 32 32"><path d="m15.44 4.491c.157.073.34.115.533.115s.377-.042.541-.118l-.008.003c.645-.277.875-.827.875-2.133 0-1.733-.363-2.336-1.419-2.347s-1.419.619-1.419 2.347c.027 1.301.251 1.856.896 2.133z"/><path d="m25.184 3.067c-.827-.651-1.488-.4-2.576.939-.821 1.019-.992 1.6-.667 2.213.17.337.474.586.839.681l.009.002c.677.192 1.2-.096 2.021-1.12 1.088-1.344 1.184-2.048.373-2.715z"/><path d="m30.421 11.232c-.235-1.024-.907-1.253-2.597-.885-1.28.277-1.776.613-1.904 1.307-.02.086-.032.185-.032.286 0 .294.098.566.264.784l-.002-.003c.405.571.997.677 2.277.4 1.707-.373 2.203-.853 1.995-1.888z"/><path d="m9.008 6.901c.379-.093.687-.343.855-.675l.003-.007c.331-.619.16-1.195-.667-2.213-1.067-1.349-1.749-1.6-2.576-.939s-.715 1.371.373 2.715c.811 1.024 1.333 1.312 2.011 1.12z"/><path d="m4 10.347c-1.717-.368-2.384-.144-2.624.885s.304 1.515 1.995 1.883c1.28.277 1.867.176 2.277-.4.163-.214.261-.486.261-.78 0-.101-.012-.2-.034-.295l.002.009c-.128-.688-.624-1.024-1.877-1.301z"/><path d="m15.984 28.587c-2.069 0-2.469.037-2.667.229-.155.144-.252.349-.252.576s.097.432.252.576h.001c.256.256.459.277 2.592.277h.133c2.133 0 2.341 0 2.592-.277.155-.144.252-.349.252-.576s-.097-.432-.252-.576h-.001c-.181-.192-.581-.229-2.651-.229z"/><path d="m15.984 30.933c-1.211 0-1.552.043-1.552.187 0 .229.379.581.832.773.216.068.465.108.723.108s.506-.039.74-.112l-.018.005c.453-.192.832-.533.832-.773-.005-.144-.347-.187-1.557-.187z"/><path d="m19.067 26.107c-.712-.101-1.535-.158-2.372-.158-.25 0-.499.005-.746.015l.035-.001c-.212-.009-.461-.014-.711-.014-.836 0-1.659.057-2.465.169l.093-.011c-.405.219-.379 1.285.043 1.6.261.187.715.213 3.04.181s2.779 0 3.04-.181c.443-.32.443-1.387.043-1.6z"/><path d="m22.288 9.6c-1.593-1.557-3.776-2.518-6.182-2.518-.043 0-.086 0-.128.001h.006c-.036-.001-.079-.001-.122-.001-2.407 0-4.589.961-6.184 2.52l.002-.002c-1.33 1.232-2.16 2.988-2.16 4.938 0 .21.01.419.029.624l-.002-.026c.251 4.619 3.733 5.419 4.517 8.069.095.46.303.861.594 1.186l-.002-.002c.4.277 6.229.283 6.629 0 .289-.323.497-.724.589-1.168l.003-.016c.784-2.64 4.267-3.461 4.517-8.069.018-.186.029-.402.029-.62 0-1.938-.82-3.685-2.132-4.912l-.004-.004zm-1.397 5.424c-.056-1.329-.662-2.506-1.594-3.318l-.006-.005c-1.093-.869.448-2.389 1.531-1.531 1.429 1.131 2.133 3.083 2.24 4.853.085 1.392-2.08 1.387-2.171 0z"/></symbol><symbol id="icon-info" viewBox="0 0 32 32"><path d="m9.376 0v9.723c-1.909 2.347-4.523 5.813-5.024 7.451-.56 1.813 1.813 6.533 2.789 9.493-.267 1.536-.683 3.125-1.275 5.333h9.44c0-1.68 1.189-3.397 2.736-5.867.267-.419.531-.909.759-1.419l.03-.075h9.003v-24.64zm16.091 22.261h-5.973c.059-.533.093-1.151.093-1.777 0-.313-.008-.624-.025-.933l.002.043c-.037-.416-.058-.9-.058-1.389 0-1.412.175-2.782.504-4.092l-.025.116c.533-2-.112-4.72-2.512-4.027-1.52.437-2.181 2.72-2.304 4.704-.187 3.115-2.309 2.917-2.912 2.731-.242-.103-.431-.291-.531-.527l-.002-.006v-14.736h13.744z"/></symbol><symbol id="icon-money" viewBox="0 0 32 32"><path d="m24.363 5.867h-24.363v12.304h1.787v-10.517h22.576zm-17.6 7.189v13.2h25.237v-13.2zm4.602 11.408c-.349-1.396-1.432-2.472-2.806-2.805l-.026-.005v-3.995c1.394-.345 2.471-1.422 2.811-2.79l.005-.026h4.965c-1.429 1.088-2.342 2.79-2.342 4.706 0 .033 0 .066.001.099v-.005c-.001.03-.001.066-.001.102 0 1.934.936 3.65 2.38 4.718l.016.011zm8.203-1.867v1.067h-1.013v-.987c-.643-.018-1.244-.18-1.778-.454l.023.011.309-1.211c.494.277 1.082.444 1.709.453h.003c.587 0 .992-.229.992-.64s-.331-.64-1.093-.896c-1.104-.373-1.856-.885-1.856-1.888 0-.907.64-1.6 1.744-1.84v-.981h1.013v.907c.545.009 1.059.134 1.522.351l-.023-.01-.32 1.168c-.434-.219-.945-.348-1.487-.352h-.001c-.672 0-.885.288-.885.576s.363.533 1.237.885c1.227.432 1.723 1.003 1.723 1.931s-.645 1.712-1.835 1.915zm10.667-.949c-1.394.345-2.471 1.422-2.811 2.79l-.006.026h-5.552c1.46-1.08 2.396-2.795 2.396-4.73 0-.036 0-.072-.001-.108v.005c0-.028.001-.061.001-.094 0-1.916-.913-3.618-2.328-4.695l-.014-.011h5.477c.345 1.394 1.422 2.471 2.79 2.81l.026.006zm-2.502-12.192h-24.379v12.304h1.787v-10.517h22.592z"/></symbol><symbol id="icon-truck" viewBox="0 0 32 32"><path d="m7.499 20.533c-1.932 0-3.499 1.566-3.499 3.499s1.566 3.499 3.499 3.499c1.932 0 3.499-1.566 3.499-3.499v0c0-1.932-1.566-3.499-3.499-3.499zm0 5.003c-.828 0-1.499-.671-1.499-1.499s.671-1.499 1.499-1.499 1.499.671 1.499 1.499v0c0 .828-.671 1.499-1.499 1.499zm22.501-21.003h-18.405c-2.536 0-4.592 2.056-4.592 4.592v0c0 .224.181.405.405.405v0h .592l-2.997 5.003-3.104.773c-.519.133-.896.597-.896 1.148v.004 0 4.075h-.336c-.368 0-.667.298-.667.667v0 2.667c0 .368.298.667.667.667v0h2.283c-.024-.145-.041-.317-.048-.493v-.009c0-2.541 2.059-4.6 4.6-4.6s4.6 2.059 4.6 4.6v0c-.007.184-.024.357-.051.526l.003-.025h7.899c-.024-.145-.041-.317-.048-.493v-.009c0-2.541 2.059-4.6 4.6-4.6s4.6 2.059 4.6 4.6v0c-.007.184-.024.357-.051.526l.003-.025h.949c1.102-.003 1.995-.897 1.995-2v0 0-16c0-1.105-.895-2-2-2v0zm-16.997 10h-5.003l2.843-4.997h2.133zm12 .998v.736c-.003.139-.116.251-.256.251-.002 0-.004 0-.006 0h-.48c-.002 0-.003 0-.005 0-.14 0-.253-.112-.256-.25v-.736c-.72-.004-1.401-.173-2.006-.471l.027.012c-.073-.033-.123-.106-.123-.19 0-.024.004-.046.011-.068v.001l.315-.901c.024-.068.079-.119.148-.138h.002c.031-.015.068-.023.107-.023s.075.009.108.024l-.002-.001c.532.255 1.152.419 1.807.453l.012.001c.635 0 1.211-.251 1.211-.709 0-.373-.427-.704-1.408-1.024-1.381-.443-2.304-1.067-2.304-1.925.075-1.114.976-1.995 2.092-2.037h.004v-.752c.003-.139.116-.251.256-.251h.006.48.005c.14 0 .253.112.256.25v.752h.045c.703 0 1.369.153 1.969.428l-.029-.012c.067.035.112.105.112.185 0 .024-.004.046-.011.068v-.001l-.32.869c-.029.067-.084.117-.153.138h-.002-.085c-.001 0-.002 0-.003 0-.048 0-.093-.012-.132-.033l.002.001c-.565-.207-1.217-.334-1.896-.352h-.008c-.576 0-1.067.208-1.067.603s.389.533 1.328.848c1.419.469 2.357 1.152 2.357 2.133-.06 1.142-.966 2.054-2.1 2.122h-.006zm-.502 5.002c-1.932 0-3.499 1.566-3.499 3.499s1.566 3.499 3.499 3.499c1.932 0 3.499-1.566 3.499-3.499v0c0-1.932-1.566-3.499-3.499-3.499zm0 5.003c-.828 0-1.499-.671-1.499-1.499s.671-1.499 1.499-1.499 1.499.671 1.499 1.499v0c0 .828-.671 1.499-1.499 1.499z"/></symbol><symbol id="icon-wallet" viewBox="0 0 32 32"><path d="m32 10.576h-29.013c.048-4.907 3.947-4.971 3.947-4.971h2.832l4.267-2.293h-7.099c-2.667 0-6.933 1.973-6.933 7.264v0 17.205c0 1.9 1.54 3.44 3.44 3.44v0h25.12c1.9 0 3.44-1.54 3.44-3.44v0-2.667h-11.403c-1.267 0-2.293-1.027-2.293-2.293v0-3.445c0-1.267 1.027-2.293 2.293-2.293v0h11.403zm-3.099-2.363-5.28-7.68-12.64 7.68zm-8.229 12.88c0 .951.771 1.723 1.723 1.723s1.723-.771 1.723-1.723c0-.95-.768-1.72-1.717-1.723h0c-.002 0-.003 0-.005 0-.951 0-1.723.771-1.723 1.723v0 0z"/></symbol></defs></svg>