<svg style="position: absolute; width: 0; height: 0; overflow: hidden;" version="1.1" xmlns="http://www.w3.org/2000/svg" xmlns:xlink="http://www.w3.org/1999/xlink">
<defs>
<symbol id="icon-logo" viewBox="0 0 32 32">
<title>logo</title>
<path fill="#25408f" style="fill: var(--color1, #25408f)" d="M0 13.346h0.3v5.316h-0.3v-5.316z"></path>
<path fill="#25408f" style="fill: var(--color1, #25408f)" d="M1.127 13.346h0.376v5.316h-0.376v-5.316z"></path>
<path fill="#25408f" style="fill: var(--color1, #25408f)" d="M2.104 13.346h0.507v5.316h-0.507v-5.316z"></path>
<path fill="#25408f" style="fill: var(--color1, #25408f)" d="M3.081 13.346h0.732v5.316h-0.732v-5.316z"></path>
<path fill="#25408f" style="fill: var(--color1, #25408f)" d="M4.133 13.346h1.053v5.316h-1.053v-5.316z"></path>
<path fill="#25408f" style="fill: var(--color1, #25408f)" d="M8.322 17.442h-1.184v-2.846h0.967c0.011-0.001 0.025-0.002 0.038-0.002 0.213 0 0.386 0.173 0.386 0.386 0 0.013-0.001 0.027-0.002 0.040l0-0.002c0 0.339-0.395 0.395-0.395 0.395h-0.808v1h0.875c0.404 0 0.572 0.198 0.572 0.573 0 0.433-0.451 0.451-0.451 0.451zM10.239 17.125c-0.019-1.090-0.845-1.334-0.845-1.334 0.639-0.152 0.606-1.041 0.606-1.041 0-1.25-0.875-1.404-1.678-1.404h-2.836v5.318h1.652l1.015-0.009c0.025 0.001 0.054 0.001 0.084 0.001 0.454 0 0.884-0.104 1.268-0.289l-0.017 0.008c0.732-0.386 0.75-1.25 0.75-1.25z"></path>
<path fill="#25408f" style="fill: var(--color1, #25408f)" d="M15.105 17.705c0.037-0.901-0.225-1.125-0.225-1.125-0.143-0.163-0.31-0.301-0.496-0.41l-0.009-0.005c0.13-0.051 0.243-0.121 0.34-0.207l-0.001 0.001c0.489-0.375 0.451-1.090 0.451-1.090 0-0.807-0.545-1.125-0.545-1.125-0.443-0.384-1.412-0.398-1.412-0.398h-2.762v5.317h1.635v-4.059h1.125c0.24 0.039 0.421 0.245 0.421 0.494 0 0.011-0 0.023-0.001 0.034l0-0.002c0.012 0.32-0.25 0.466-0.411 0.526h-0.89v1.109h0.75c0.539 0.139 0.489 1.015 0.489 1.015 0.015 0.323 0.089 0.624 0.213 0.899l-0.006-0.016h1.579c-0.203-0.2-0.25-0.959-0.25-0.959z"></path>
<path fill="#25408f" style="fill: var(--color1, #25408f)" d="M15.486 13.346h1.56v5.316h-1.56v-5.316z"></path>
<path fill="#25408f" style="fill: var(--color1, #25408f)" d="M20.596 13.346v2.687l-1.54-2.688h-1.541v5.317h1.541v-2.652l1.552 2.652h1.66v-5.317h-1.672z"></path>
<path fill="#25408f" style="fill: var(--color1, #25408f)" d="M22.7 13.346h1.654v5.318h-1.654v-5.317z"></path>
<path fill="#25408f" style="fill: var(--color1, #25408f)" d="M26.005 13.348l-1.745 2.592 1.747 2.724h2.047l-1.916-2.819 1.782-2.498h-1.916z"></path>
<path fill="#25408f" style="fill: var(--color1, #25408f)" d="M27.691 17.824c0.269 0.428 0.693 0.738 1.191 0.854l0.013 0.003c0.258 0.062 0.554 0.097 0.858 0.097 0.345 0 0.679-0.046 0.997-0.131l-0.027 0.006s0.9-0.205 1.195-1.016c0 0 0.33-0.848-0.142-1.489 0 0-0.321-0.455-1.176-0.704l-0.936-0.24s-0.456-0.084-0.571-0.306c-0.030-0.040-0.049-0.090-0.049-0.145 0-0.009 0-0.017 0.001-0.025l-0 0.001s0.027-0.313 0.414-0.331c0 0 0.46-0.064 0.699 0.084 0.161 0.083 0.27 0.249 0.27 0.439 0 0.021-0.001 0.042-0.004 0.063l0-0.002h1.444c0.001-0.025 0.002-0.054 0.002-0.083 0-0.515-0.258-0.97-0.651-1.243l-0.005-0.003s-0.455-0.393-1.506-0.401c0 0-1.087-0.009-1.739 0.66-0.227 0.264-0.366 0.61-0.366 0.988 0 0.227 0.050 0.442 0.139 0.635l-0.004-0.009s0.264 0.643 1.389 0.919c0 0 1 0.231 1.266 0.419 0.046 0.031 0.084 0.069 0.117 0.111l0.001 0.001c0.052 0.051 0.084 0.121 0.084 0.199 0 0.032-0.006 0.064-0.016 0.093l0.001-0.002c-0.058 0.172-0.204 0.3-0.383 0.331l-0.003 0s-0.652 0.192-1.076-0.148c0 0-0.22-0.165-0.229-0.625h-1.435c0 0.119 0.011 0.661 0.241 1z"></path>
</symbol>
<symbol id="icon-phone" viewBox="0 0 32 32">
<title>phone</title>
<path fill="#23408f" style="fill: var(--color2, #23408f)" d="M16 0c-8.837 0-16 7.163-16 16s7.163 16 16 16c8.837 0 16-7.163 16-16v0c0-8.837-7.163-16-16-16v0zM25.824 22.216c-0.514 2.234-2.485 3.875-4.84 3.875-0.268 0-0.532-0.021-0.788-0.062l0.028 0.004c-3.662-0.64-6.832-2.409-9.217-4.928l-0.007-0.008c-2.507-2.362-4.248-5.511-4.827-9.052l-0.013-0.092c-0.304-2.872 0.96-5.104 3.328-5.944 0.134-0.045 0.288-0.071 0.448-0.071 0.591 0 1.099 0.354 1.324 0.862l0.004 0.009 1.264 2.752c0.076 0.171 0.121 0.37 0.121 0.58 0 0.397-0.159 0.757-0.417 1.020l-1.96 1.96s0.048 1.544 3.2 4.728 4.728 3.2 4.728 3.2l1.968-1.848c0.263-0.263 0.627-0.426 1.029-0.426 0.237 0 0.461 0.057 0.659 0.158l-0.008-0.004 3.2 1.6c0.492 0.243 0.824 0.741 0.824 1.317 0 0.132-0.017 0.26-0.050 0.382l0.002-0.010z"></path>
</symbol>
<symbol id="icon-time" viewBox="0 0 32 32">
<title>time</title>
<path fill="#23408f" style="fill: var(--color2, #23408f)" d="M29.035 12.357c-2.009-4.649-6.314-7.962-11.446-8.528l-0.063-0.006v-0.949h1.067c0.405-0.012 0.73-0.337 0.741-0.74l0-0.001v-1.371c0-0.421-0.341-0.763-0.763-0.763h-5.125c-0.421 0-0.763 0.341-0.763 0.763v0 1.371c0 0.421 0.341 0.763 0.763 0.763v0h1.067v0.907c-7.137 0.783-12.639 6.779-12.639 14.059 0 3.903 1.581 7.436 4.138 9.994l-0-0c2.558 2.55 6.088 4.127 9.985 4.127 7.811 0 14.144-6.332 14.144-14.144 0-1.979-0.406-3.863-1.14-5.573l0.035 0.092zM16.005 29.483c-6.418 0-11.621-5.203-11.621-11.621s5.203-11.621 11.621-11.621c6.418 0 11.621 5.203 11.621 11.621v0c-0.009 6.415-5.207 11.612-11.62 11.621h-0.001z"></path>
<path fill="#23408f" style="fill: var(--color2, #23408f)" d="M16.459 7.819c-0.014-0-0.031-0-0.047-0-5.384 0-9.749 4.365-9.749 9.749s4.365 9.749 9.749 9.749c4.14 0 7.678-2.581 9.091-6.221l0.023-0.067-9.099-3.461z"></path>
</symbol>
<symbol id="icon-assist" viewBox="0 0 29 32">
<title>assist</title>
<path fill="#23408f" style="fill: var(--color2, #23408f)" d="M20.040 4.484c-0.060 0.424-0.14 0.868-0.244 1.316 4.69 1.101 8.128 5.249 8.128 10.2s-3.438 9.099-8.057 10.186l-0.071 0.014c0.104 0.448 0.188 0.892 0.244 1.316 5.308-1.229 9.204-5.917 9.204-11.514s-3.896-10.285-9.124-11.498l-0.080-0.016z"></path>
<path fill="#23408f" style="fill: var(--color2, #23408f)" d="M12.472 10.12c0.333-0.473 0.722-0.879 1.163-1.218l0.013-0.010 0.164-0.124 1.972 0.228h0.044c0.191-0.022 0.359-0.108 0.484-0.236l0-0c0.632-0.564 1.164-1.828 1.496-3.176 0.091-0.347 0.179-0.793 0.244-1.246l0.008-0.070c0.060-0.399 0.096-0.861 0.1-1.332l0-0.004c0-1.368-0.332-2.264-0.892-2.4l-1.968-0.472c-0.15-0.037-0.322-0.059-0.499-0.060h-0.001c-2.192 0-4.232 3.016-5.56 6.924q-0.084 0.248-0.164 0.5c-0.228 0.72-0.436 1.468-0.612 2.228-0.036 0.156-0.068 0.316-0.1 0.472h4.108z"></path>
<path fill="#23408f" style="fill: var(--color2, #23408f)" d="M17.804 26.4c-0.328-1.348-0.864-2.616-1.496-3.176-0.124-0.13-0.292-0.217-0.481-0.236l-0.003-0h-0.044l-1.968 0.228-0.164-0.124c-0.518-0.397-0.954-0.869-1.299-1.406l-0.013-0.022c-0.285 0.153-0.624 0.243-0.984 0.244h-2.98q0.048 0.216 0.096 0.428c0.22 0.936 0.48 1.852 0.776 2.724 1.328 3.928 3.364 6.94 5.556 6.94 0.002 0 0.004 0 0.005 0 0.183 0 0.36-0.022 0.53-0.063l-0.015 0.003 1.96-0.472c0.56-0.132 0.892-1.028 0.892-2.4-0.004-0.475-0.040-0.937-0.107-1.39l0.007 0.054c-0.079-0.531-0.172-0.982-0.288-1.423l0.020 0.091z"></path>
<path fill="#23408f" style="fill: var(--color2, #23408f)" d="M11.76 20.476c0.207-0.133 0.354-0.344 0.399-0.591l0.001-0.005c0.009-0.046 0.015-0.099 0.015-0.153 0-0.155-0.044-0.3-0.121-0.423l0.002 0.003-0.272-0.436c0.668-0.544 1.14-1.18 0.616-1.932l-0.348-0.5 0.512-0.316c0.28-0.178 0.48-0.461 0.547-0.792l0.001-0.008c0.013-0.067 0.021-0.144 0.021-0.223 0-0.248-0.075-0.478-0.204-0.669l0.003 0.004-0.308-0.452-0.032-0.044 0.036-0.024 0.496-0.316c0.277-0.179 0.474-0.462 0.535-0.793l0.001-0.007c0.017-0.074 0.027-0.158 0.027-0.245 0-0.6-0.475-1.089-1.069-1.111l-0.002-0h-5.452l0.496-2.308c-1.488 0.368-3.82 2.18-5 3.152l-0.16 0.132h-2.5v7.020h1.912c1.412 0.6 2.468 1.14 4 1.144h5.44c0.002 0 0.004 0 0.007 0 0.148 0 0.286-0.040 0.405-0.11l-0.004 0.002z"></path>
<path fill="#23408f" style="fill: var(--color2, #23408f)" d="M23.964 16c-0.005-3.035-2.081-5.584-4.891-6.31l-0.045-0.010-0.256 1.316c2.215 0.621 3.812 2.622 3.812 4.996 0 2.384-1.611 4.393-3.804 4.995l-0.036 0.009 0.26 1.312c2.861-0.725 4.946-3.271 4.96-6.306v-0.002z"></path>
</symbol>
<symbol id="icon-bag" viewBox="0 0 24 32">
<title>bag</title>
<path fill="#23408f" style="fill: var(--color2, #23408f)" d="M16.8 10.088c-1.33 0.425-2.861 0.677-4.448 0.692l-0.008 0c-0.022 0-0.047 0-0.073 0-1.582 0-3.092-0.304-4.477-0.857l0.081 0.029c-5.64 3.936-9.2 13.288-7.412 16.728 2.648 5.092 7.684 5.32 11.3 5.32s9.392 0.54 12.164-6.176c2.472-5.984-5.356-14.028-7.128-15.736zM12.984 26v1.816h-1.744v-1.688c-1.108-0.032-2.144-0.31-3.064-0.783l0.040 0.019 0.532-2.080c0.851 0.485 1.867 0.779 2.95 0.8l0.006 0c1.016 0 1.708-0.4 1.708-1.104s-0.568-1.104-1.888-1.548c-1.904-0.64-3.2-1.532-3.2-3.256 0-1.568 1.104-2.8 3.008-3.168v-1.712h1.744v1.564c0.939 0.015 1.824 0.23 2.619 0.605l-0.039-0.017-0.516 2c-0.748-0.376-1.629-0.598-2.562-0.604h-0.002c-1.156 0-1.532 0.5-1.532 0.996 0 0.588 0.624 0.96 2.136 1.532 2.116 0.748 2.972 1.728 2.972 3.328s-1.124 2.948-3.168 3.3zM16.54 8s2.868-6.304 1.86-6.936-3.46 1.78-3.704 1.7-2.44-2.512-3.284-2.72-1.956 0.4-2.872 1.44c-1.896-0.876-2.48-0.1-3.068 0.496s2.56 5.78 2.56 5.78c2.484 1.192 5.336 1.28 8.508 0.24z"></path>
</symbol>
<symbol id="icon-mobile" viewBox="0 0 19 32">
<title>mobile</title>
<path fill="#23408f" style="fill: var(--color2, #23408f)" d="M14.192 0h-8.94c-2.9 0.002-5.25 2.352-5.252 5.252v21.496c0.002 2.9 2.352 5.25 5.252 5.252h8.94c2.9-0.002 5.25-2.352 5.252-5.252v-21.496c-0.002-2.9-2.352-5.25-5.252-5.252h-0zM5.252 2.424h8.94c1.561 0.002 2.826 1.267 2.828 2.828v16.892h-14.596v-16.892c0.002-1.561 1.267-2.826 2.828-2.828h0zM7.128 26.468c0-1.434 1.162-2.596 2.596-2.596s2.596 1.162 2.596 2.596c0 1.434-1.162 2.596-2.596 2.596v0c-1.434 0-2.596-1.162-2.596-2.596v0z"></path>
</symbol>
<symbol id="icon-safe" viewBox="0 0 32 32">
<title>safe</title>
<path fill="#23408f" style="fill: var(--color2, #23408f)" d="M16.224 11.468v-0.268c0-0.163-0.133-0.296-0.296-0.296v0h-0.86c-0.163 0-0.296 0.133-0.296 0.296v0 0.264c-1.931 0.355-3.375 2.025-3.375 4.032s1.444 3.677 3.35 4.028l0.025 0.004v0.264c0 0.163 0.133 0.296 0.296 0.296h0.864c0.163 0 0.296-0.133 0.296-0.296v0-0.264c1.931-0.355 3.375-2.025 3.375-4.032s-1.444-3.677-3.35-4.028l-0.025-0.004z"></path>
<path fill="#23408f" style="fill: var(--color2, #23408f)" d="M28.496 28.496h-26v-26h26v3.324h2.504v-3.568c0-1.244-1.008-2.252-2.252-2.252v0h-26.496c-1.244 0-2.252 1.008-2.252 2.252v0 26.496c0 1.244 1.008 2.252 2.252 2.252h1.148c-0.002 0.020-0.003 0.044-0.003 0.068s0.001 0.048 0.003 0.071l-0-0.003c0.002 0.472 0.381 0.855 0.851 0.864h3.001c0.479 0 0.868-0.389 0.868-0.868v0c0.002-0.020 0.003-0.044 0.003-0.068s-0.001-0.048-0.003-0.071l0 0.003h14.768c-0.002 0.020-0.003 0.044-0.003 0.068s0.001 0.048 0.003 0.071l-0-0.003c0 0 0 0 0 0 0 0.475 0.382 0.861 0.855 0.868h3.001c0.474-0.007 0.856-0.393 0.856-0.868 0-0 0-0 0-0v0c0.002-0.020 0.003-0.044 0.003-0.068s-0.001-0.048-0.003-0.071l0 0.003h1.148c1.244 0 2.252-1.008 2.252-2.252v0-3.572h-2.504z"></path>
<path fill="#23408f" style="fill: var(--color2, #23408f)" d="M28.496 10.824h2.5v9.348h-2.5v-9.348z"></path>
<path fill="#23408f" style="fill: var(--color2, #23408f)" d="M24.936 5.824h2.868v-2.624h-24.604v24.604h24.604v-2.632h-2.868c-0.722 0-1.308-0.586-1.308-1.308v0-2.4c0-0.722 0.586-1.308 1.308-1.308v0h2.868v-9.332h-2.868c-0.722 0-1.308-0.586-1.308-1.308v0-2.4c0.009-0.715 0.591-1.292 1.308-1.292 0 0 0 0 0 0v0zM15.5 20.432c-2.724 0-4.932-2.208-4.932-4.932s2.208-4.932 4.932-4.932c2.724 0 4.932 2.208 4.932 4.932v0c-0.002 2.723-2.209 4.93-4.932 4.932h-0z"></path>
<path fill="#23408f" style="fill: var(--color2, #23408f)" d="M25.024 6.316h6.1c0.497 0 0.9 0.403 0.9 0.9v2.2c0 0.497-0.403 0.9-0.9 0.9h-6.1c-0.497 0-0.9-0.403-0.9-0.9v-2.2c0-0.497 0.403-0.9 0.9-0.9z"></path>
<path fill="#23408f" style="fill: var(--color2, #23408f)" d="M25.024 20.68h6.1c0.497 0 0.9 0.403 0.9 0.9v2.2c0 0.497-0.403 0.9-0.9 0.9h-6.1c-0.497 0-0.9-0.403-0.9-0.9v-2.2c0-0.497 0.403-0.9 0.9-0.9z"></path>
</symbol>
<symbol id="icon-idea" viewBox="0 0 32 32">
<title>idea</title>
<path fill="#23408f" style="fill: var(--color2, #23408f)" d="M15.44 4.491c0.157 0.073 0.34 0.115 0.533 0.115s0.377-0.042 0.541-0.118l-0.008 0.003c0.645-0.277 0.875-0.827 0.875-2.133 0-1.733-0.363-2.336-1.419-2.347s-1.419 0.619-1.419 2.347c0.027 1.301 0.251 1.856 0.896 2.133z"></path>
<path fill="#23408f" style="fill: var(--color2, #23408f)" d="M25.184 3.067c-0.827-0.651-1.488-0.4-2.576 0.939-0.821 1.019-0.992 1.6-0.667 2.213 0.17 0.337 0.474 0.586 0.839 0.681l0.009 0.002c0.677 0.192 1.2-0.096 2.021-1.12 1.088-1.344 1.184-2.048 0.373-2.715z"></path>
<path fill="#23408f" style="fill: var(--color2, #23408f)" d="M30.421 11.232c-0.235-1.024-0.907-1.253-2.597-0.885-1.28 0.277-1.776 0.613-1.904 1.307-0.020 0.086-0.032 0.185-0.032 0.286 0 0.294 0.098 0.566 0.264 0.784l-0.002-0.003c0.405 0.571 0.997 0.677 2.277 0.4 1.707-0.373 2.203-0.853 1.995-1.888z"></path>
<path fill="#23408f" style="fill: var(--color2, #23408f)" d="M9.008 6.901c0.379-0.093 0.687-0.343 0.855-0.675l0.003-0.007c0.331-0.619 0.16-1.195-0.667-2.213-1.067-1.349-1.749-1.6-2.576-0.939s-0.715 1.371 0.373 2.715c0.811 1.024 1.333 1.312 2.011 1.12z"></path>
<path fill="#23408f" style="fill: var(--color2, #23408f)" d="M4 10.347c-1.717-0.368-2.384-0.144-2.624 0.885s0.304 1.515 1.995 1.883c1.28 0.277 1.867 0.176 2.277-0.4 0.163-0.214 0.261-0.486 0.261-0.78 0-0.101-0.012-0.2-0.034-0.295l0.002 0.009c-0.128-0.688-0.624-1.024-1.877-1.301z"></path>
<path fill="#23408f" style="fill: var(--color2, #23408f)" d="M15.984 28.587c-2.069 0-2.469 0.037-2.667 0.229-0.155 0.144-0.252 0.349-0.252 0.576s0.097 0.432 0.252 0.576l0.001 0c0.256 0.256 0.459 0.277 2.592 0.277h0.133c2.133 0 2.341 0 2.592-0.277 0.155-0.144 0.252-0.349 0.252-0.576s-0.097-0.432-0.252-0.576l-0.001-0c-0.181-0.192-0.581-0.229-2.651-0.229z"></path>
<path fill="#23408f" style="fill: var(--color2, #23408f)" d="M15.984 30.933c-1.211 0-1.552 0.043-1.552 0.187 0 0.229 0.379 0.581 0.832 0.773 0.216 0.068 0.465 0.108 0.723 0.108s0.506-0.039 0.74-0.112l-0.018 0.005c0.453-0.192 0.832-0.533 0.832-0.773-0.005-0.144-0.347-0.187-1.557-0.187z"></path>
<path fill="#23408f" style="fill: var(--color2, #23408f)" d="M19.067 26.107c-0.712-0.101-1.535-0.158-2.372-0.158-0.25 0-0.499 0.005-0.746 0.015l0.035-0.001c-0.212-0.009-0.461-0.014-0.711-0.014-0.836 0-1.659 0.057-2.465 0.169l0.093-0.011c-0.405 0.219-0.379 1.285 0.043 1.6 0.261 0.187 0.715 0.213 3.040 0.181s2.779 0 3.040-0.181c0.443-0.32 0.443-1.387 0.043-1.6z"></path>
<path fill="#23408f" style="fill: var(--color2, #23408f)" d="M22.288 9.6c-1.593-1.557-3.776-2.518-6.182-2.518-0.043 0-0.086 0-0.128 0.001l0.006-0c-0.036-0.001-0.079-0.001-0.122-0.001-2.407 0-4.589 0.961-6.184 2.52l0.002-0.002c-1.33 1.232-2.16 2.988-2.16 4.938 0 0.21 0.010 0.419 0.029 0.624l-0.002-0.026c0.251 4.619 3.733 5.419 4.517 8.069 0.095 0.46 0.303 0.861 0.594 1.186l-0.002-0.002c0.4 0.277 6.229 0.283 6.629 0 0.289-0.323 0.497-0.724 0.589-1.168l0.003-0.016c0.784-2.64 4.267-3.461 4.517-8.069 0.018-0.186 0.029-0.402 0.029-0.62 0-1.938-0.82-3.685-2.132-4.912l-0.004-0.004zM20.891 15.024c-0.056-1.329-0.662-2.506-1.594-3.318l-0.006-0.005c-1.093-0.869 0.448-2.389 1.531-1.531 1.429 1.131 2.133 3.083 2.24 4.853 0.085 1.392-2.080 1.387-2.171 0z"></path>
</symbol>
<symbol id="icon-info" viewBox="0 0 32 32">
<title>info</title>
<path fill="#23408f" style="fill: var(--color2, #23408f)" d="M9.376 0v9.723c-1.909 2.347-4.523 5.813-5.024 7.451-0.56 1.813 1.813 6.533 2.789 9.493-0.267 1.536-0.683 3.125-1.275 5.333h9.44c0-1.68 1.189-3.397 2.736-5.867 0.267-0.419 0.531-0.909 0.759-1.419l0.030-0.075h9.003v-24.64zM25.467 22.261h-5.973c0.059-0.533 0.093-1.151 0.093-1.777 0-0.313-0.008-0.624-0.025-0.933l0.002 0.043c-0.037-0.416-0.058-0.9-0.058-1.389 0-1.412 0.175-2.782 0.504-4.092l-0.025 0.116c0.533-2-0.112-4.72-2.512-4.027-1.52 0.437-2.181 2.72-2.304 4.704-0.187 3.115-2.309 2.917-2.912 2.731-0.242-0.103-0.431-0.291-0.531-0.527l-0.002-0.006v-14.736h13.744z"></path>
</symbol>
<symbol id="icon-money" viewBox="0 0 32 32">
<title>money</title>
<path fill="#23408f" style="fill: var(--color2, #23408f)" d="M24.363 5.867h-24.363v12.304h1.787v-10.517h22.576zM6.763 13.056v13.2h25.237v-13.2zM11.365 24.464c-0.349-1.396-1.432-2.472-2.806-2.805l-0.026-0.005v-3.995c1.394-0.345 2.471-1.422 2.811-2.79l0.005-0.026h4.965c-1.429 1.088-2.342 2.79-2.342 4.706 0 0.033 0 0.066 0.001 0.099l-0-0.005c-0.001 0.030-0.001 0.066-0.001 0.102 0 1.934 0.936 3.65 2.38 4.718l0.016 0.011zM19.568 22.597v1.067h-1.013v-0.987c-0.643-0.018-1.244-0.18-1.778-0.454l0.023 0.011 0.309-1.211c0.494 0.277 1.082 0.444 1.709 0.453l0.003 0c0.587 0 0.992-0.229 0.992-0.64s-0.331-0.64-1.093-0.896c-1.104-0.373-1.856-0.885-1.856-1.888 0-0.907 0.64-1.6 1.744-1.84v-0.981h1.013v0.907c0.545 0.009 1.059 0.134 1.522 0.351l-0.023-0.010-0.32 1.168c-0.434-0.219-0.945-0.348-1.487-0.352h-0.001c-0.672 0-0.885 0.288-0.885 0.576s0.363 0.533 1.237 0.885c1.227 0.432 1.723 1.003 1.723 1.931s-0.645 1.712-1.835 1.915zM30.235 21.648c-1.394 0.345-2.471 1.422-2.811 2.79l-0.006 0.026h-5.552c1.46-1.080 2.396-2.795 2.396-4.73 0-0.036-0-0.072-0.001-0.108l0 0.005c0-0.028 0.001-0.061 0.001-0.094 0-1.916-0.913-3.618-2.328-4.695l-0.014-0.011h5.477c0.345 1.394 1.422 2.471 2.79 2.81l0.026 0.006zM27.733 9.456h-24.379v12.304h1.787v-10.517h22.592z"></path>
</symbol>
<symbol id="icon-truck" viewBox="0 0 32 32">
<title>truck</title>
<path fill="#23408f" style="fill: var(--color2, #23408f)" d="M7.499 20.533c-1.932 0-3.499 1.566-3.499 3.499s1.566 3.499 3.499 3.499c1.932 0 3.499-1.566 3.499-3.499v0c0-1.932-1.566-3.499-3.499-3.499v0zM7.499 25.536c-0.828 0-1.499-0.671-1.499-1.499s0.671-1.499 1.499-1.499c0.828 0 1.499 0.671 1.499 1.499v0c0 0.828-0.671 1.499-1.499 1.499v0zM30 4.533h-18.405c-2.536 0-4.592 2.056-4.592 4.592v0c0 0.224 0.181 0.405 0.405 0.405v0h0.592l-2.997 5.003-3.104 0.773c-0.519 0.133-0.896 0.597-0.896 1.148 0 0.001 0 0.003 0 0.004v-0 4.075h-0.336c-0.368 0-0.667 0.298-0.667 0.667v0 2.667c0 0.368 0.298 0.667 0.667 0.667v0h2.283c-0.024-0.145-0.041-0.317-0.048-0.493l-0-0.009c0-2.541 2.059-4.6 4.6-4.6s4.6 2.059 4.6 4.6v0c-0.007 0.184-0.024 0.357-0.051 0.526l0.003-0.025h7.899c-0.024-0.145-0.041-0.317-0.048-0.493l-0-0.009c0-2.541 2.059-4.6 4.6-4.6s4.6 2.059 4.6 4.6v0c-0.007 0.184-0.024 0.357-0.051 0.526l0.003-0.025h0.949c1.102-0.003 1.995-0.897 1.995-2 0 0 0 0 0 0v0-16c0-1.105-0.895-2-2-2v0zM13.003 14.533h-5.003l2.843-4.997h2.133zM25.003 15.531v0.736c-0.003 0.139-0.116 0.251-0.256 0.251-0.002 0-0.004-0-0.006-0h-0.48c-0.002 0-0.003 0-0.005 0-0.14 0-0.253-0.112-0.256-0.25v-0.736c-0.72-0.004-1.401-0.173-2.006-0.471l0.027 0.012c-0.073-0.033-0.123-0.106-0.123-0.19 0-0.024 0.004-0.046 0.011-0.068l-0 0.001 0.315-0.901c0.024-0.068 0.079-0.119 0.148-0.138l0.002-0c0.031-0.015 0.068-0.023 0.107-0.023s0.075 0.009 0.108 0.024l-0.002-0.001c0.532 0.255 1.152 0.419 1.807 0.453l0.012 0.001c0.635 0 1.211-0.251 1.211-0.709 0-0.373-0.427-0.704-1.408-1.024-1.381-0.443-2.304-1.067-2.304-1.925 0.075-1.114 0.976-1.995 2.092-2.037l0.004-0v-0.752c0.003-0.139 0.116-0.251 0.256-0.251 0.002 0 0.004 0 0.006 0h0.48c0.002-0 0.003-0 0.005-0 0.14 0 0.253 0.112 0.256 0.25v0.752c0.013-0 0.029-0 0.045-0 0.703 0 1.369 0.153 1.969 0.428l-0.029-0.012c0.067 0.035 0.112 0.105 0.112 0.185 0 0.024-0.004 0.046-0.011 0.068l0-0.001-0.32 0.869c-0.029 0.067-0.084 0.117-0.153 0.138l-0.002 0h-0.085c-0.001 0-0.002 0-0.003 0-0.048 0-0.093-0.012-0.132-0.033l0.002 0.001c-0.565-0.207-1.217-0.334-1.896-0.352l-0.008-0c-0.576 0-1.067 0.208-1.067 0.603s0.389 0.533 1.328 0.848c1.419 0.469 2.357 1.152 2.357 2.133-0.060 1.142-0.966 2.054-2.1 2.122l-0.006 0zM24.501 20.533c-1.932 0-3.499 1.566-3.499 3.499s1.566 3.499 3.499 3.499c1.932 0 3.499-1.566 3.499-3.499v0c0-1.932-1.566-3.499-3.499-3.499v0zM24.501 25.536c-0.828 0-1.499-0.671-1.499-1.499s0.671-1.499 1.499-1.499c0.828 0 1.499 0.671 1.499 1.499v0c0 0.828-0.671 1.499-1.499 1.499v0z"></path>
</symbol>
<symbol id="icon-wallet" viewBox="0 0 32 32">
<title>wallet</title>
<path fill="#23408f" style="fill: var(--color2, #23408f)" d="M32 10.576h-29.013c0.048-4.907 3.947-4.971 3.947-4.971h2.832l4.267-2.293h-7.099c-2.667 0-6.933 1.973-6.933 7.264v0 17.205c0 1.9 1.54 3.44 3.44 3.44v0h25.12c1.9 0 3.44-1.54 3.44-3.44v0-2.667h-11.403c-1.267 0-2.293-1.027-2.293-2.293v0-3.445c0-1.267 1.027-2.293 2.293-2.293v0h11.403zM28.901 8.213l-5.28-7.68-12.64 7.68zM20.672 21.093c0 0.951 0.771 1.723 1.723 1.723s1.723-0.771 1.723-1.723c0-0.95-0.768-1.72-1.717-1.723h-0c-0.002 0-0.003 0-0.005 0-0.951 0-1.723 0.771-1.723 1.723 0 0 0 0 0 0v0z"></path>
</symbol>
</defs>
</svg>
